<svg xmlns="http://www.w3.org/2000/svg" viewBox="0 0 64 64" fill="none">
  <!-- Rest/Campfire icon -->
  <g>
    <!-- Flames -->
    <path d="M32 8 Q40 20 36 32 Q44 28 40 40 Q48 36 42 48 L22 48 Q16 36 24 40 Q20 28 28 32 Q24 20 32 8 Z" 
          fill="#FF6347" stroke="#FF4500" stroke-width="2"/>
    <path d="M32 16 Q36 24 34 32 Q38 30 36 38 L28 38 Q26 30 30 32 Q28 24 32 16 Z" 
          fill="#FFD700"/>
    <path d="M32 24 Q34 28 33 34 L31 34 Q30 28 32 24 Z" 
          fill="#FFFFFF" opacity="0.7"/>
    <!-- Logs -->
    <ellipse cx="24" cy="54" rx="12" ry="4" fill="#8B4513" stroke="#654321" stroke-width="1" transform="rotate(-20 24 54)"/>
    <ellipse cx="40" cy="54" rx="12" ry="4" fill="#8B4513" stroke="#654321" stroke-width="1" transform="rotate(20 40 54)"/>
    <!-- Sparks -->
    <circle cx="24" cy="12" r="2" fill="#FFD700"/>
    <circle cx="40" cy="16" r="1.5" fill="#FF6347"/>
    <circle cx="20" cy="20" r="1.5" fill="#FFD700"/>
  </g>
</svg>
